<svg width="128" height="128" viewBox="0 0 128 128" fill="none" xmlns="http://www.w3.org/2000/svg">
<rect width="128" height="128" fill="black"/>
<path d="M110.393 77.5197C110.89 77.5197 111.273 77.7493 111.541 78.2086C111.847 78.6678 112 79.2993 112 80.103C112 81.4808 111.675 82.6672 111.024 83.6622C108.766 87.1449 105.551 88.8862 101.38 88.8862C99.5811 88.8862 97.9737 88.5417 96.5577 87.8529C95.1799 87.1257 94.0509 86.0924 93.1707 84.7529C90.951 87.4702 88.3677 88.8288 85.4208 88.8288C83.3159 88.8288 81.6512 88.2164 80.4265 86.9918C79.2018 85.7671 78.5895 84.1406 78.5895 82.1122C78.5895 80.1987 79.0296 78.6487 79.9098 77.4623C80.7901 76.2759 82.0339 75.6827 83.6412 75.6827C85.019 75.6827 85.7079 76.1994 85.7079 77.2327C85.7079 77.5389 85.6696 78.0747 85.5931 78.8401L85.4208 81.0215C85.4208 82.1696 85.9184 82.7437 86.9134 82.7437C87.6405 82.7437 88.3294 82.3227 88.98 81.4808C89.6689 80.6005 90.2238 79.4141 90.6448 77.9216C91.1041 76.429 91.3337 74.7833 91.3337 72.9846C91.3337 71.6069 91.1615 70.4587 90.817 69.5402C90.4726 68.5835 90.0516 68.1051 89.5541 68.1051C89.1331 68.1051 88.8269 68.2199 88.6356 68.4495C88.4442 68.6409 88.2529 68.9853 88.0615 69.4828C87.8319 70.0952 87.5257 70.5927 87.143 70.9754C86.7603 71.3198 86.0906 71.4921 85.1338 71.4921C84.2918 71.4921 83.6221 71.205 83.1246 70.631C82.6271 70.0186 82.3783 69.1001 82.3783 67.8755C82.3783 65.9236 82.9715 64.3928 84.1579 63.283C85.3443 62.1731 86.8751 61.6182 88.7504 61.6182C90.3578 61.6182 91.8121 62.02 93.1133 62.8237C94.4145 63.5891 95.4095 64.7181 96.0984 66.2107C97.2465 64.6798 98.5286 63.5317 99.9446 62.7663C101.399 62.0009 102.815 61.6182 104.193 61.6182C105.685 61.6182 106.814 61.9626 107.58 62.6515C108.383 63.3404 108.785 64.4502 108.785 65.981C108.785 67.7032 108.46 69.0619 107.809 70.0569C107.159 71.0137 106.374 71.4921 105.456 71.4921C104.614 71.4921 104.04 71.3198 103.733 70.9754C103.427 70.631 103.198 70.1334 103.045 69.4828C102.968 69.0236 102.853 68.6791 102.7 68.4495C102.547 68.2199 102.279 68.1051 101.896 68.1051C101.437 68.1051 100.94 68.5452 100.404 69.4254C99.9064 70.2674 99.4663 71.3964 99.0835 72.8124C98.7391 74.2284 98.5669 75.7019 98.5669 77.2327C98.5669 78.9549 98.9496 80.3326 99.715 81.3659C100.519 82.3993 101.475 82.9159 102.585 82.9159C104.69 82.9159 106.776 81.4042 108.843 78.3808C109.225 77.8068 109.742 77.5197 110.393 77.5197Z" fill="white"/>
<path d="M65.1797 88.8858C62.9217 88.8858 60.989 88.3309 59.3817 87.221C57.8126 86.0729 56.6262 84.5804 55.8225 82.7434C55.0188 80.9064 54.6169 78.9354 54.6169 76.8305C54.6169 73.9219 55.1527 71.3386 56.2243 69.0806C57.3342 66.7844 58.8267 65.0048 60.702 63.7419C62.5773 62.4406 64.6822 61.79 67.0167 61.79C69.2747 61.79 71.2074 62.3641 72.8148 63.5122C74.4221 64.6221 75.6277 66.0955 76.4314 67.9325C77.235 69.7695 77.6369 71.7405 77.6369 73.8454C77.6369 76.754 77.082 79.3564 75.9721 81.6526C74.8622 83.9106 73.3505 85.6902 71.437 86.9914C69.5617 88.2544 67.476 88.8858 65.1797 88.8858ZM65.8112 82.6859C67.1124 82.6859 68.2031 81.9779 69.0833 80.5619C70.0018 79.1459 70.4611 77.0793 70.4611 74.362C70.4611 72.2571 70.0784 70.6689 69.313 69.5973C68.5476 68.5257 67.6291 67.9899 66.5575 67.9899C65.1797 67.9899 64.0316 68.6979 63.1131 70.114C62.2329 71.4917 61.7927 73.5583 61.7927 76.3138C61.7927 78.4953 62.1754 80.1027 62.9409 81.136C63.7063 82.1693 64.6631 82.6859 65.8112 82.6859Z" fill="white"/>
<path d="M58.5381 63.7995C59.4183 63.7995 60.0498 63.9909 60.4325 64.3736C60.8535 64.7563 61.064 65.2538 61.064 65.8662C61.064 66.8612 60.7578 67.7414 60.1455 68.5069C59.5714 69.2723 58.6529 69.6741 57.39 69.7124C54.3283 69.7889 51.6111 69.5593 49.2383 69.0235C46.521 74.7259 43.2297 79.4715 39.3644 83.2603C35.5373 87.0108 31.6911 88.8861 27.8257 88.8861C23.8455 88.8861 20.8795 86.5707 18.9277 81.9399C16.9759 77.3092 16 71.0519 16 63.1681C16 56.4324 16.4784 50.3856 17.4352 45.0277C17.7796 43.0376 18.258 41.6981 18.8703 41.0092C19.5209 40.2821 20.6116 39.9185 22.1425 39.9185C24.6684 39.9185 25.9313 41.0092 25.9313 43.1907C25.9313 43.4203 25.893 43.8413 25.8165 44.4536C24.6684 51.3424 24.0943 57.5805 24.0943 63.1681C24.0943 69.0235 24.5727 73.4821 25.5295 76.5437C26.5245 79.5671 27.9979 81.0788 29.9497 81.0788C31.9398 81.0788 34.1021 79.7011 36.4367 76.9456C38.7712 74.1901 40.9144 70.7266 42.8662 66.555C40.5316 65.1008 38.7712 63.2255 37.5848 60.9292C36.3984 58.5947 35.8052 55.9157 35.8052 52.8923C35.8052 49.8689 36.2644 47.3239 37.1829 45.2573C38.1397 43.1524 39.4218 41.5833 41.0292 40.55C42.6748 39.5167 44.4927 39 46.4828 39C48.9321 39 50.8648 39.8802 52.2808 41.6407C53.7351 43.4012 54.4622 45.8122 54.4622 48.8739C54.4622 53.275 53.5055 58.078 51.5919 63.2829C53.6203 63.6273 55.9357 63.7995 58.5381 63.7995ZM41.6032 52.4905C41.6032 56.241 42.8088 59.0157 45.2198 60.8144C46.7124 56.5281 47.4587 52.988 47.4587 50.1942C47.4587 48.5869 47.2482 47.4196 46.8272 46.6924C46.4062 45.927 45.8322 45.5443 45.105 45.5443C44.0717 45.5443 43.2297 46.1567 42.5791 47.3813C41.9285 48.5677 41.6032 50.2708 41.6032 52.4905Z" fill="white"/>
</svg>
