<svg width="108" height="57" viewBox="0 0 108 57" fill="none" xmlns="http://www.w3.org/2000/svg">
<path d="M106.107 43.6479C106.661 43.6479 107.088 43.9039 107.387 44.4159C107.728 44.9279 107.899 45.6319 107.899 46.5279C107.899 48.0639 107.536 49.3866 106.811 50.4959C104.293 54.3786 100.709 56.3199 96.0585 56.3199C94.0532 56.3199 92.2612 55.9359 90.6825 55.1679C89.1465 54.3573 87.8878 53.2053 86.9065 51.7119C84.4318 54.7413 81.5519 56.2559 78.2665 56.2559C75.9199 56.2559 74.0639 55.5733 72.6985 54.2079C71.3332 52.8426 70.6505 51.0293 70.6505 48.7679C70.6505 46.6346 71.1412 44.9066 72.1225 43.5839C73.1038 42.2613 74.4905 41.5999 76.2825 41.5999C77.8185 41.5999 78.5865 42.1759 78.5865 43.3279C78.5865 43.6693 78.5439 44.2666 78.4585 45.1199L78.2665 47.5519C78.2665 48.8319 78.8212 49.4719 79.9305 49.4719C80.7412 49.4719 81.5092 49.0026 82.2345 48.0639C83.0025 47.0826 83.6212 45.7599 84.0905 44.0959C84.6025 42.4319 84.8585 40.5973 84.8585 38.5919C84.8585 37.0559 84.6665 35.7759 84.2825 34.7519C83.8985 33.6853 83.4292 33.1519 82.8745 33.1519C82.4052 33.1519 82.0639 33.2799 81.8505 33.5359C81.6372 33.7493 81.4239 34.1333 81.2105 34.6879C80.9545 35.3706 80.6132 35.9253 80.1865 36.3519C79.7598 36.7359 79.0132 36.9279 77.9465 36.9279C77.0079 36.9279 76.2612 36.6079 75.7065 35.9679C75.1518 35.2853 74.8745 34.2613 74.8745 32.8959C74.8745 30.7199 75.5358 29.0133 76.8585 27.7759C78.1812 26.5386 79.8878 25.9199 81.9785 25.9199C83.7705 25.9199 85.3918 26.3679 86.8425 27.2639C88.2932 28.1173 89.4025 29.3759 90.1705 31.0399C91.4505 29.3333 92.8799 28.0533 94.4585 27.1999C96.0799 26.3466 97.6585 25.9199 99.1945 25.9199C100.859 25.9199 102.117 26.3039 102.971 27.0719C103.867 27.8399 104.315 29.0773 104.315 30.7839C104.315 32.7039 103.952 34.2186 103.227 35.3279C102.501 36.3946 101.627 36.9279 100.603 36.9279C99.6639 36.9279 99.0239 36.7359 98.6825 36.3519C98.3412 35.9679 98.0852 35.4133 97.9145 34.6879C97.8292 34.1759 97.7012 33.7919 97.5305 33.5359C97.3599 33.2799 97.0612 33.1519 96.6345 33.1519C96.1225 33.1519 95.5679 33.6426 94.9705 34.6239C94.4159 35.5626 93.9252 36.8213 93.4985 38.3999C93.1145 39.9786 92.9225 41.6213 92.9225 43.3279C92.9225 45.2479 93.3492 46.7839 94.2025 47.9359C95.0985 49.0879 96.1652 49.6639 97.4025 49.6639C99.7492 49.6639 102.075 47.9786 104.379 44.6079C104.805 43.9679 105.381 43.6479 106.107 43.6479Z" fill="black"/>
<path d="M55.7005 56.3198C53.1832 56.3198 51.0285 55.7011 49.2365 54.4638C47.4872 53.1838 46.1645 51.5198 45.2685 49.4718C44.3725 47.4238 43.9245 45.2265 43.9245 42.8798C43.9245 39.6371 44.5218 36.7571 45.7165 34.2398C46.9538 31.6798 48.6178 29.6958 50.7085 28.2878C52.7992 26.8371 55.1458 26.1118 57.7485 26.1118C60.2658 26.1118 62.4205 26.7518 64.2125 28.0318C66.0045 29.2691 67.3485 30.9118 68.2445 32.9598C69.1405 35.0078 69.5885 37.2052 69.5885 39.5518C69.5885 42.7945 68.9698 45.6958 67.7325 48.2558C66.4952 50.7731 64.8098 52.7572 62.6765 54.2078C60.5858 55.6158 58.2605 56.3198 55.7005 56.3198ZM56.4045 49.4078C57.8552 49.4078 59.0712 48.6185 60.0525 47.0398C61.0765 45.4612 61.5885 43.1571 61.5885 40.1278C61.5885 37.7811 61.1618 36.0105 60.3085 34.8158C59.4552 33.6211 58.4312 33.0238 57.2365 33.0238C55.7005 33.0238 54.4205 33.8131 53.3965 35.3918C52.4152 36.9278 51.9245 39.2318 51.9245 42.3038C51.9245 44.7358 52.3512 46.5278 53.2045 47.6798C54.0578 48.8318 55.1245 49.4078 56.4045 49.4078Z" fill="black"/>
<path d="M48.296 28.3521C49.2773 28.3521 49.9813 28.5654 50.408 28.9921C50.8773 29.4188 51.112 29.9734 51.112 30.6561C51.112 31.7654 50.7707 32.7468 50.088 33.6001C49.448 34.4534 48.424 34.9014 47.016 34.9441C43.6027 35.0294 40.5733 34.7734 37.928 34.1761C34.8987 40.5334 31.2293 45.8241 26.92 50.0481C22.6533 54.2294 18.3653 56.3201 14.056 56.3201C9.61868 56.3201 6.31201 53.7388 4.13601 48.5761C1.96001 43.4134 0.872009 36.4374 0.872009 27.6481C0.872009 20.1388 1.40534 13.3974 2.47201 7.4241C2.85601 5.20543 3.38934 3.7121 4.07201 2.9441C4.79734 2.13343 6.01334 1.7281 7.72001 1.7281C10.536 1.7281 11.944 2.9441 11.944 5.3761C11.944 5.6321 11.9013 6.10143 11.816 6.7841C10.536 14.4641 9.89601 21.4188 9.89601 27.6481C9.89601 34.1761 10.4293 39.1468 11.496 42.5601C12.6053 45.9308 14.248 47.6161 16.424 47.6161C18.6427 47.6161 21.0533 46.0801 23.656 43.0081C26.2587 39.9361 28.648 36.0748 30.824 31.4241C28.2213 29.8028 26.2587 27.7121 24.936 25.1521C23.6133 22.5494 22.952 19.5628 22.952 16.1921C22.952 12.8214 23.464 9.9841 24.488 7.6801C25.5547 5.33343 26.984 3.5841 28.776 2.4321C30.6107 1.2801 32.6373 0.704102 34.856 0.704102C37.5867 0.704102 39.7413 1.68543 41.32 3.6481C42.9413 5.61077 43.752 8.29877 43.752 11.7121C43.752 16.6188 42.6853 21.9734 40.552 27.7761C42.8133 28.1601 45.3947 28.3521 48.296 28.3521ZM29.416 15.7441C29.416 19.9254 30.76 23.0188 33.448 25.0241C35.112 20.2454 35.944 16.2988 35.944 13.1841C35.944 11.3921 35.7093 10.0908 35.24 9.2801C34.7707 8.42677 34.1307 8.0001 33.32 8.0001C32.168 8.0001 31.2293 8.68277 30.504 10.0481C29.7787 11.3708 29.416 13.2694 29.416 15.7441Z" fill="black"/>
</svg>
